<?xml version="1.0" encoding="UTF-8"?>
<svg id="Layer_2" xmlns="http://www.w3.org/2000/svg" viewBox="0 0 171.72 177.41">
  <defs>
    <style>
      .cls-1 {
        fill: #fff;
      }
    </style>
  </defs>
  <g id="Layer_1-2" data-name="Layer_1">
    <path class="cls-1" d="M67.47,47.96c-18.44,0-36.89.02-55.33-.04-1.56,0-1.98.33-1.98,1.94.06,23.72.17,47.44-.03,71.16-.08,9.24,7.22,16.14,16.1,16.01,16.79-.25,33.58-.05,50.37-.1,1.47,0,2.08.22,2.13,1.9.07,2.27.52,4.54.93,6.78.2,1.11.12,1.58-1.22,1.57-17.87-.04-35.74.13-53.61-.08C10.87,146.94.03,135.65.02,121.66c-.03-27.98-.03-55.97,0-83.95.01-12.59,9.1-23.13,21.49-25.12,1.25-.2,1.5.17,1.48,1.34-.03,2.41-.18,4.83.15,7.24.95,6.81,6.69,11.57,13.42,11.12,6.54-.44,11.7-6.01,11.78-12.73.02-1.97.05-3.94-.02-5.91-.04-1.01.29-1.29,1.29-1.29,11.83.03,23.66.04,35.49,0,1.21,0,1.51.4,1.46,1.53-.08,2.03-.06,4.07,0,6.1.18,6.89,5.83,12.35,12.72,12.31,6.84-.04,12.45-5.65,12.52-12.53.02-2.03.07-4.07-.02-6.1-.05-1.13.41-1.22,1.35-1.11,11.61,1.4,21.4,12.01,21.58,23.82.19,12.53.05,25.06.06,37.59,0,3.05-.05,6.11.02,9.16.03,1.23-.32,1.49-1.52,1.33-2.27-.3-4.58-.33-6.85,0-1.52.22-1.77-.26-1.76-1.68.06-10.75.04-21.5.04-32.24q0-2.58-2.66-2.58c-18.19,0-36.38,0-54.57,0Z"/>
    <path class="cls-1" d="M87.73,135.28c.04-23.14,18.84-41.87,42.04-41.86,23.12,0,41.98,18.88,41.95,41.98-.03,23.37-18.85,42.08-42.26,42.02-23.13-.06-41.77-18.88-41.73-42.13ZM97.82,135.31c-.05,17.56,14.23,31.93,31.81,32,17.62.07,31.87-14.24,31.9-32.04.03-17.44-14.22-31.62-31.84-31.68-17.45-.05-31.81,14.24-31.86,31.72Z"/>
    <path class="cls-1" d="M40.75,12.43c0,2.29.03,4.58,0,6.86-.05,3.2-2.21,5.46-5.15,5.43-2.85-.03-5-2.25-5.03-5.35-.05-4.7-.06-9.41,0-14.11C30.61,2.31,32.77.09,35.52,0c2.83-.09,5.08,2.11,5.22,5.18.06,1.21,0,2.41,0,3.62,0,1.21,0,2.42,0,3.62Z"/>
    <path class="cls-1" d="M94.14,12.35c0-2.41-.04-4.83.01-7.24C94.23,2.16,96.41,0,99.19,0c2.78.01,4.97,2.21,5,5.15.05,4.83.05,9.66,0,14.48-.03,2.96-2.21,5.09-5.04,5.08-2.75,0-4.85-2.05-5-4.94-.07-1.27-.02-2.54-.02-3.81,0-1.21,0-2.41,0-3.62Z"/>
    <path class="cls-1" d="M48.33,117.93c0-1.71.05-3.43-.02-5.14-.04-.97.21-1.36,1.25-1.34,3.43.05,6.86.04,10.29,0,.87,0,1.25.21,1.24,1.17-.04,3.49-.04,6.99,0,10.48,0,.88-.22,1.23-1.17,1.22-3.49-.05-6.99-.06-10.48,0-1,.02-1.14-.4-1.12-1.24.05-1.71.01-3.43.01-5.14Z"/>
    <path class="cls-1" d="M86.52,66.9c0,1.72-.05,3.44.02,5.15.04.95-.19,1.36-1.24,1.34-3.43-.06-6.87-.06-10.3-.01-.97.01-1.34-.21-1.33-1.25.06-3.43.05-6.87.01-10.3,0-.86.18-1.26,1.15-1.24,3.5.05,6.99.06,10.49,0,1.09-.02,1.26.46,1.23,1.37-.05,1.65-.01,3.31-.01,4.96h-.02Z"/>
    <path class="cls-1" d="M35.58,118.03c0,1.65-.04,3.3.02,4.95.04.94-.17,1.36-1.23,1.34-3.43-.06-6.85-.06-10.28,0-1.04.02-1.27-.39-1.25-1.34.05-3.36.05-6.73,0-10.09-.02-1.03.2-1.46,1.35-1.43,3.36.08,6.73.08,10.09,0,1.16-.03,1.37.42,1.33,1.43-.07,1.71-.02,3.43-.02,5.14Z"/>
    <path class="cls-1" d="M80.08,98.81c-1.65,0-3.31-.08-4.95.03-1.23.08-1.48-.39-1.45-1.52.07-3.3.05-6.61,0-9.91-.01-.91.09-1.36,1.2-1.34,3.43.08,6.86.07,10.29,0,1.1-.02,1.4.35,1.38,1.41-.05,3.3-.07,6.61.02,9.91.03,1.23-.41,1.51-1.54,1.45-1.65-.09-3.3-.02-4.96-.02Z"/>
    <path class="cls-1" d="M61.06,66.99c0,1.65-.04,3.3.02,4.95.04.97-.1,1.47-1.3,1.45-3.42-.08-6.85-.06-10.28,0-.9.01-1.21-.22-1.2-1.15.05-3.49.05-6.98,0-10.47-.01-.92.28-1.19,1.19-1.18,3.43.05,6.85.05,10.28,0,.98-.02,1.34.26,1.3,1.28-.08,1.71-.02,3.42-.02,5.14Z"/>
    <path class="cls-1" d="M111.93,66.94c0,1.71-.03,3.43.01,5.14.02.91-.13,1.32-1.23,1.3-3.43-.08-6.85-.04-10.28.01-.99.02-1.28-.29-1.26-1.3.07-3.36.06-6.73,0-10.09-.02-1.02.2-1.45,1.34-1.42,3.36.08,6.73.08,10.09,0,1.13-.02,1.4.36,1.35,1.41-.08,1.65-.02,3.3-.02,4.95Z"/>
    <path class="cls-1" d="M35.57,92.45c0,1.71-.06,3.43.02,5.13.05,1.03-.32,1.26-1.29,1.24-3.36-.06-6.72-.05-10.08,0-1.02.02-1.43-.2-1.41-1.33.08-3.36.07-6.72,0-10.08-.03-1.11.37-1.37,1.39-1.35,3.29.06,6.59.08,9.89.01,1.12-.02,1.59.18,1.5,1.43-.12,1.64-.03,3.29-.03,4.94Z"/>
    <path class="cls-1" d="M48.32,92.46c0-1.65.04-3.31-.02-4.96-.04-.98.12-1.47,1.31-1.44,3.37.09,6.74.05,10.11.01.9,0,1.38.11,1.36,1.21-.07,3.43-.05,6.87-.01,10.3,0,.85-.14,1.26-1.13,1.24-3.5-.05-7-.06-10.49,0-.99.02-1.16-.38-1.14-1.22.04-1.72.01-3.43.01-5.15Z"/>
    <path class="cls-1" d="M124.68,125.29c0-3.62-.02-7.24,0-10.86.03-3.08,2.19-5.31,5.05-5.3,2.84.02,4.99,2.28,5,5.36.03,5.65.04,11.31-.01,16.96-.01,1.12.29,1.87,1.19,2.57,2.35,1.83,4.63,3.76,6.92,5.68,2.56,2.14,3.06,5.27,1.22,7.55-1.88,2.34-4.93,2.52-7.6.36-3.65-2.96-7.22-6-10.87-8.96-.73-.59-.93-1.23-.92-2.11.04-3.75.02-7.5.02-11.24Z"/>
  </g>
</svg>