<?xml version="1.0" encoding="UTF-8"?>
<svg id="Layer_2" xmlns="http://www.w3.org/2000/svg" viewBox="0 0 177.07 177.08">
  <defs>
    <style>
      .cls-1 {
        fill: #fff;
      }
    </style>
  </defs>
  <g id="Layer_1-2" data-name="Layer_1">
    <path class="cls-1" d="M47.06,177.04c-10.74,0-21.48-.07-32.22.03-7.09.07-12.96-4.4-14.61-11.59-.25-1.08-.19-2.24-.19-3.36,0-21.63-.01-43.27,0-64.9,0-8.59,6.21-14.8,14.77-14.8,21.74,0,43.47,0,65.21,0,8.24,0,14.61,6.06,14.64,14.32.09,22.04.08,44.09-.01,66.13-.04,8.12-6.41,14.16-14.59,14.17-11,.02-21.99,0-32.99,0Z"/>
    <path class="cls-1" d="M10.87,61.26C5.42,60.24.28,54.67.18,48.96-.02,37.15-.09,25.34.15,13.54.3,5.92,6.57.12,14.28.09c22.08-.07,44.17-.07,66.25,0,7.81.02,14.04,6.22,14.11,14.02.11,11.3.1,22.59,0,33.89-.06,6.44-5.07,12.23-11.35,13.48-.3.06-.61.04-.91.06-.56-.34-1.18-.28-1.79-.28-3.84,0-7.67,0-11.51,0-18.26,0-36.52-.02-54.78.04-1.15,0-2.29-.74-3.44-.05Z"/>
    <path class="cls-1" d="M117.1,7.61c2.6-4.72,6.63-7.39,11.98-7.47,11.4-.16,22.8-.21,34.19,0,8.04.15,13.75,6.54,13.75,14.8,0,17.58,0,35.17,0,52.75,0,4.09,0,8.18,0,12.27-.02,8.36-6.03,14.64-14.36,14.72-11.19.11-22.39.09-33.58-.02-6.44-.06-12.18-5.02-13.48-11.34-.06-.3-.05-.61-.07-.91.34-.56.29-1.18.29-1.79,0-22.19,0-44.39,0-66.58,0-.54.19-1.14-.3-1.6.02-.2.05-.4.07-.6,1.02-.49.39-1.42.57-2.13v-.02c1.3-.26.76-1.33.93-2.09Z"/>
    <path class="cls-1" d="M166.19,115.85c6,1.12,10.75,6.97,10.81,13.67.09,11.15.11,22.29,0,33.44-.08,7.61-5.9,13.82-13.46,13.97-11.75.23-23.52.17-35.27-.05-4.34-.08-7.83-2.36-10.3-6.02-.44-2.01-1.41-3.8-2.37-5.6-.02-.2-.05-.4-.07-.6.49-.46.29-1.06.29-1.6.01-11.24,0-22.48,0-33.72,0-.61.06-1.23-.27-1.79.42-4.95,4.61-9.96,9.5-11.38,1.33.41,2.57-.33,3.87-.33,11.54,0,23.07.01,34.61-.01.89,0,1.77.68,2.66.02Z"/>
    <path class="cls-1" d="M10.87,61.26c1.15-.7,2.29.05,3.44.05,18.26-.06,36.52-.04,54.78-.04,3.84,0,7.67,0,11.51,0,.61,0,1.23-.05,1.79.28-.87.4-1.81.28-2.72.28-21.53,0-43.06,0-64.59,0-1.42,0-2.86.03-4.2-.57Z"/>
    <path class="cls-1" d="M115.52,12.44c.49.46.3,1.06.3,1.6,0,22.19,0,44.39,0,66.58,0,.61.05,1.23-.29,1.79-.4-.87-.27-1.81-.27-2.72-.01-21.51-.01-43.03,0-64.54,0-.91-.14-1.84.25-2.71Z"/>
    <path class="cls-1" d="M166.19,115.85c-.89.66-1.77-.02-2.66-.02-11.54.02-23.07.02-34.61.01-1.3,0-2.54.74-3.87.33,1.6-.78,3.32-.89,5.05-.89,10.68-.01,21.36-.01,32.04,0,1.37,0,2.75,0,4.05.57Z"/>
    <path class="cls-1" d="M115.55,127.56c.34.56.27,1.18.27,1.79,0,11.24,0,22.48,0,33.72,0,.54.19,1.14-.29,1.6-.39-.77-.25-1.6-.26-2.4-.02-10.72-.02-21.43,0-32.15,0-.86-.11-1.74.29-2.56Z"/>
    <path class="cls-1" d="M115.59,165.27c.96,1.79,1.93,3.58,2.37,5.6-1.31-1.65-2.12-3.5-2.37-5.6Z"/>
    <path class="cls-1" d="M117.1,7.61c-.17.76.36,1.83-.93,2.09.11-.79.5-1.44.93-2.09Z"/>
    <path class="cls-1" d="M116.16,9.71c-.19.71.44,1.64-.57,2.13.02-.76.18-1.47.57-2.13Z"/>
  </g>
</svg>