<?xml version="1.0" encoding="UTF-8"?>
<svg id="Layer_2" xmlns="http://www.w3.org/2000/svg" viewBox="0 0 331.38 331.58">
  <defs>
    <style>
      .cls-1 {
        fill: #f3f3f3;
      }

      .cls-2 {
        fill: #a7a6a6;
      }
    </style>
  </defs>
  <g id="Layer_1-2" data-name="Layer_1">
    <g>
      <path class="cls-2" d="M59.61,291.4c-6.77-2.06-10.45-7.94-14.88-12.64-16.43-17.42-28.47-37.58-36.12-60.31-4.42-13.12-6.98-26.6-8.09-40.43-1.86-23.23,1.34-45.71,8.98-67.64,8.99-25.81,23.67-47.98,43.69-66.43C75.8,23.1,102.27,9.17,132.56,3.38c49.78-9.51,95.14.98,135.28,32.07,32.06,24.83,51.86,57.65,60.05,97.2,6.99,33.79,3.39,66.75-10.2,98.55-9.09,21.27-22.28,39.63-39.01,55.52-2.14,2.03-4.09,4.4-7.19,5.1-.34-1.62-.67-3.24-1.03-4.86-6.31-28.11-20.95-50.66-44.59-67.36-3.53-2.5-5.91-2.26-9.11.39-8.54,7.06-18.17,12.26-28.98,14.94-27.18,6.75-52.08,2.29-73.99-15.68-2.65-2.17-4.42-2.34-7.28-.39-25.88,17.59-40.67,42.27-46.9,72.53ZM224.68,156.8c.61-32.77-25.46-59.88-59.23-59.74-34.1.14-59.35,27.53-58.98,60.09.36,31.91,26.6,58.42,58.56,58.41,33.3,0,59.67-25.98,59.66-58.76Z"/>
      <path class="cls-1" d="M59.61,291.4c6.23-30.26,21.02-54.94,46.9-72.53,2.86-1.95,4.63-1.78,7.28.39,21.92,17.97,46.82,22.43,73.99,15.68,10.81-2.68,20.44-7.88,28.98-14.94,3.21-2.65,5.58-2.89,9.11-.39,23.63,16.7,38.28,39.25,44.59,67.36.36,1.61.69,3.24,1.03,4.86-2.83,5.01-8.03,7.21-12.4,10.36-10.66,7.67-22.3,13.77-34.47,18.41-11.52,4.4-23.46,7.92-35.94,8.95-5.42.45-10.8,1.65-16.23,1.89-18.37.83-36.28-2.1-53.93-7.07-20.38-5.75-38.67-15.44-55.24-28.51-1.54-1.21-3.33-2.25-3.67-4.46Z"/>
      <path class="cls-1" d="M224.68,156.8c.01,32.78-26.36,58.75-59.66,58.76-31.96,0-58.2-26.5-58.56-58.41-.36-32.56,24.89-59.95,58.98-60.09,33.77-.14,59.84,26.97,59.23,59.74Z"/>
    </g>
  </g>
</svg>