<?xml version="1.0" encoding="UTF-8"?>
<svg id="Layer_2" xmlns="http://www.w3.org/2000/svg" viewBox="0 0 258.93 155.62">
  <defs>
    <style>
      .cls-1 {
        fill: #fff37d;
      }
    </style>
  </defs>
  <g id="Layer_1-2" data-name="Layer_1">
    <g>
      <path class="cls-1" d="M0,44.32c30.77-10.61,61.23-21.11,91.69-31.62,11.85-4.09,23.7-8.17,35.53-12.3,1.46-.51,2.8-.55,4.28-.03,42.01,14.54,84.04,29.04,126.06,43.56.32.11.63.22,1.37.47-7.3,2.82-14.2,5.56-21.16,8.14-1.91.71-2.69,1.6-2.66,3.78.14,10.08.08,20.16.04,30.24,0,1.55.17,2.61,1.71,3.65,3.79,2.55,3.82,7.93.16,10.73-1.28.98-1.44,1.85-1.21,3.27,1.3,7.89,2.52,15.79,3.8,23.94-4.11,0-8.1-.04-12.1.02-1.28.02-1.3-.54-1.14-1.52,1.21-7.25,2.34-14.51,3.59-21.75.31-1.78.19-2.98-1.47-4.27-3.48-2.71-3.12-7.95.65-10.49,1.3-.88,1.6-1.75,1.59-3.16-.05-9.43-.04-18.85-.04-28.28q0-3.36-3-2.19c-23.55,9.15-47.1,18.31-70.65,27.47-8.39,3.26-16.79,6.51-25.16,9.85-1.76.7-3.28.67-5.06-.02C85.12,77.54,43.38,61.34,1.63,45.13c-.43-.17-.83-.41-1.63-.81Z"/>
      <path class="cls-1" d="M49.86,72.43c12.1,4.57,23.81,9,35.52,13.4,13.74,5.17,27.51,10.26,41.21,15.51,1.97.76,3.59.78,5.56.03,25.18-9.55,50.39-19.01,75.59-28.49.25-.09.52-.15.81-.23.65.51.36,1.2.36,1.78.02,17.08-.01,34.17.05,51.25,0,1.46-.36,2.4-1.57,3.23-20.04,13.7-41.79,23.28-66.06,25.98-26.17,2.91-50.67-3.07-73.73-15.47-5.51-2.96-10.76-6.32-15.76-10.08-1-.75-2.03-1.36-2.03-3.04.08-17.83.05-35.65.05-53.87Z"/>
    </g>
  </g>
</svg>