<?xml version="1.0" encoding="UTF-8"?>
<svg id="Calque_2" data-name="Calque 2" xmlns="http://www.w3.org/2000/svg" viewBox="0 0 216.91 222.89">
  <defs>
    <style>
      .cls-1 {
        fill: #472b1a;
      }

      .cls-2 {
        fill: #f2cd8b;
      }

      .cls-3 {
        fill: #d9e9f0;
      }

      .cls-4 {
        fill: #e9bf7a;
      }

      .cls-5 {
        fill: #1b4994;
      }
    </style>
  </defs>
  <g id="Calque_1-2" data-name="Calque 1">
    <g>
      <ellipse class="cls-3" cx="108.45" cy="111.22" rx="108.45" ry="111.22"/>
      <path class="cls-5" d="M196.27,176.49c-14.52,22.47-29.46,42.76-77.88,46.08s-78.65-19.21-96.96-44.97c4.32-10.53,15.69-18.2,26.35-21.18,7.55-2.11,20.29-2.3,26.63-5.85,20.9,14.48,51.11,13.27,71.96-1,5.9,2.4,14.49,2.86,20.77,4.72,12.78,3.78,21.67,11.37,29.13,22.2Z"/>
      <path class="cls-1" d="M142.38,93.56c-.44-12.27,1.29-25.04-9.52-33.97-7.12-5.88-6.81-1.06-12.77,2.16-2.45,1.33-8.28,4.21-10.68,4.81-6.63,1.65-15.55.43-21.94,4.55-3.11,2.01-6.49,6.66-7.91,10.09-1.18,2.85-2.64,12.89-3.17,13.33-1.11.93-4.03-.89-4.96-.97-8.02-4.86-4.29-13.3-5.01-21.48-.57-6.39-2.81-15.99-9.97-17.53v-1.45c14.28-17.33,41.37-43.76,64.9-26.96,2.57,1.83,5.93,6.86,8.11,7.89,3.26,1.55,7.18,1.11,11.29,3.71,14.62,9.26,17.61,33.79,9.48,48.16-1.42,2.51-4.79,7.22-7.82,7.67Z"/>
      <path class="cls-4" d="M142.38,93.56c.05,1.33-.05,2.67,0,4,5.94-3.76,11.06-2.65,9.76,5.25-.87,5.3-4.12,14.58-10.77,10.75,1.6,9.87-4.44,15.33-9.87,22.31,3.32,5.24,9.11,11.35,14.86,13.69-20.85,14.27-51.06,15.48-71.96,1,.32-.18,4.98-4.51,5.44-5.06,2.61-3.12,4.11-7.21,5.55-10.94,6.79,6.48,15,12.69,24.99,12l-1-80c2.4-.6,8.23-3.48,10.68-4.81,5.97-3.23,5.65-8.04,12.77-2.16,10.82,8.93,9.09,21.71,9.52,33.97Z"/>
      <path class="cls-2" d="M109.4,66.56l1,80c-9.99.68-18.2-5.53-24.99-12-4.91-4.69-7.98-7.73-9.76-14.74-.35-1.39-.06-5.07-.24-5.25-.82-.82-7.17,2.07-9.31-6.18-1.51-5.82-2.75-15.48,5.32-14.82.93.08,3.85,1.89,4.96.97.53-.44,1.99-10.48,3.17-13.33,1.42-3.42,4.79-8.08,7.91-10.09,6.39-4.12,15.31-2.9,21.94-4.55Z"/>
    </g>
  </g>
</svg>