<?xml version="1.0" encoding="UTF-8"?>
<svg id="Layer_2" xmlns="http://www.w3.org/2000/svg" viewBox="0 0 196.5 201.91">
  <defs>
    <style>
      .cls-1 {
        fill: #fff;
      }
    </style>
  </defs>
  <g id="Layer_1-2" data-name="Layer_1">
    <path class="cls-1" d="M.05,131.42c-.06-2.04,1.1-3.37,2.61-4.55,6.29-4.91,12.54-9.88,18.86-14.75,1.17-.9,1.71-1.78,1.49-3.29-.75-5.25-.73-10.52,0-15.77.19-1.38-.19-2.27-1.34-3.15-6.32-4.87-12.58-9.83-18.85-14.77-3.19-2.51-3.62-4.66-1.59-8.18,6.4-11.09,12.81-22.18,19.23-33.26,1.88-3.25,4-3.96,7.55-2.53,7.46,3,14.93,5.98,22.36,9.05,1.31.54,2.23.45,3.38-.41,4.28-3.22,8.86-5.98,13.8-8.05,1.25-.53,1.72-1.29,1.89-2.59,1.04-7.69,2.21-15.36,3.24-23.05C73.31,1.48,74.82.02,79.52.01c12.53-.01,25.05-.02,37.58,0,4.42,0,6.02,1.54,6.61,5.88,1.08,7.91,2.29,15.79,3.36,23.7.15,1.12.62,1.62,1.6,2.05,5.05,2.2,9.77,4.99,14.18,8.29,1.11.83,2,.8,3.18.31,7.38-3.02,14.78-5.97,22.17-8.95,3.86-1.55,5.82-.93,7.86,2.58,6.42,11.08,12.83,22.17,19.23,33.26,1.98,3.43,1.56,5.48-1.6,7.96-6.33,4.98-12.66,9.97-19.04,14.88-1.08.83-1.45,1.67-1.27,2.96.73,5.4.71,10.81-.01,16.21-.17,1.25.26,2.01,1.23,2.76,6.25,4.84,12.45,9.75,18.67,14.63,3.56,2.79,3.97,4.81,1.75,8.66-6.34,10.96-12.67,21.92-19.01,32.88-1.97,3.4-4.02,4.11-7.68,2.64-7.46-3-14.93-5.98-22.37-9.03-1.21-.49-2.08-.5-3.18.33-4.4,3.31-9.12,6.1-14.18,8.28-.99.43-1.43.98-1.58,2.07-1.06,7.76-2.27,15.5-3.3,23.26-.63,4.79-2.11,6.29-6.9,6.29-12.45.01-24.91.01-37.36,0-4.67,0-6.17-1.49-6.8-6.17-1.04-7.76-2.24-15.5-3.29-23.26-.16-1.17-.61-1.78-1.68-2.24-5-2.14-9.66-4.91-14-8.16-1.17-.88-2.1-.89-3.38-.36-7.44,3.06-14.9,6.05-22.37,9.05-3.52,1.41-5.64.68-7.52-2.58-6.38-11.02-12.75-22.04-19.12-33.06-.66-1.14-1.35-2.28-1.27-3.68ZM98.25,65.68c-19.63-.02-35.32,15.64-35.32,35.27,0,19.54,15.6,35.2,35.11,35.27,19.64.06,35.38-15.55,35.44-35.16.06-19.62-15.61-35.35-35.22-35.38Z"/>
  </g>
</svg>