<?xml version="1.0" encoding="UTF-8"?>
<svg id="Calque_2" data-name="Calque 2" xmlns="http://www.w3.org/2000/svg" viewBox="0 0 223.83 226.01">
  <defs>
    <style>
      .cls-1 {
        fill: #e9be79;
      }

      .cls-2 {
        fill: #d99b68;
      }

      .cls-3 {
        fill: #d9e9f0;
      }

      .cls-4 {
        fill: #bd2423;
      }

      .cls-5 {
        fill: #51311d;
      }
    </style>
  </defs>
  <g id="Calque_1-2" data-name="Calque 1">
    <g>
      <circle class="cls-3" cx="111.91" cy="111.91" r="111.91"/>
      <path class="cls-4" d="M62.32,142.01c10.46,10.2,23.35,19.51,37.94,22.54,23.9,4.96,43.98-6.9,60-23.54,2.31-.1,5.78-.51,8-1,17.66,5.53,33.96,16.99,34.48,37.31-12.83,19.26-45.4,48.69-88.35,48.69s-82.04-25.28-94.04-50c.36-19.71,15.01-31.51,32.98-36,2.19.73,6.78,1.82,8.99,2Z"/>
      <path class="cls-5" d="M53.33,140.01c-4.74-1.57-8.3-3.59-10.99-7.99,28.77-5.82,22.28-46.83,26.25-69.24,9.48-53.49,79.69-49.96,85.55,1.85,2.16,19.04,1.58,52.72,20.15,64.83,1.85,1.2,6.73,2.26,6.95,2.56,2.2,3.04-11.01,7.55-12.99,7.99-2.22.49-5.68.9-8,1-12.18.53-34.46-2.23-31.98-19,6.7-5.05,15.15-21.12,15.98-29.51.35-3.51.22-21.17-1.18-23.3-.24-.36-3.07-1.12-4.32-2.17-7.38-6.26-12.08-14.49-13.98-24.02-3.97,12.82-11.64,18.84-23.95,23.04-4.14,1.41-19.93,3.95-21.32,6.66-2.8,5.46-.4,23.08,1.3,29.31,1.85,6.79,6.79,15.76,12.5,20,.85,15.95-18.04,21.02-30.98,20-2.21-.18-6.8-1.27-8.99-2Z"/>
      <path class="cls-2" d="M128.28,122.01c-2.48,16.77,19.8,19.53,31.98,19-16.02,16.64-36.1,28.5-60,23.54-14.59-3.03-27.48-12.34-37.94-22.54,12.95,1.02,31.83-4.05,30.98-20,10.36,7.68,24.59,7.83,34.98,0Z"/>
      <path class="cls-1" d="M93.3,122.01c-5.7-4.23-10.65-13.21-12.5-20-1.7-6.22-4.1-23.85-1.3-29.31,1.39-2.71,17.18-5.25,21.32-6.66,12.31-4.2,19.99-10.22,23.95-23.04,1.9,9.53,6.6,17.77,13.98,24.02,1.25,1.06,4.09,1.81,4.32,2.17,1.4,2.13,1.52,19.79,1.18,23.3-.83,8.39-9.28,24.46-15.98,29.51-10.39,7.83-24.62,7.68-34.98,0Z"/>
    </g>
  </g>
</svg>